<svg version="1.0" id="Layer_1" xmlns="http://www.w3.org/2000/svg" xmlns:xlink="http://www.w3.org/1999/xlink" x="0px" y="0px"
	 width="83px" height="22px" viewBox="0 0 83 22" enable-background="new 0 0 83 22" xml:space="preserve">
<rect fill="#33CCFF" width="7" height="22"/>
<rect x="10" y="16" fill="#33CCFF" width="7" height="6"/>
<rect x="10" y="7" fill="#33CCFF" width="7" height="2"/>
<rect x="10" width="7" height="7"/>
<rect x="17" fill="#FF4400" width="9" height="7"/>
<rect x="33" y="7" fill="#33CCFF" width="7" height="15"/>
<rect x="33" width="7" height="7"/>
<rect x="28" fill="#FF4400" width="5" height="7"/>
<rect x="40" fill="#FF4400" width="5" height="7"/>
<rect x="52" y="7" fill="#33CCFF" width="7" height="15"/>
<rect x="52" width="7" height="7"/>
<rect x="47" fill="#FF4400" width="5" height="7"/>
<rect x="59" fill="#FF4400" width="5" height="7"/>
<rect x="71" y="7" fill="#33CCFF" width="7" height="15"/>
<rect x="71" width="7" height="7"/>
<rect x="66" fill="#FF4400" width="5" height="7"/>
<rect x="78" fill="#FF4400" width="5" height="7"/>
<rect x="10" y="9" width="7" height="7"/>
<rect x="17" y="9" fill="#FF4400" width="6" height="7"/>
</svg>
